<?xml version="1.0" encoding="UTF-8"?>
<svg version="1.1" xmlns="http://www.w3.org/2000/svg" width="789" height="789">
  <path
    d="M0 0 C4.20104192 3.46313163 8.1219488 7.18177849 12 11 C13.11568359 12.07894531 13.11568359 12.07894531 14.25390625 13.1796875 C29.81278298 29.31707433 34.48292474 51.94672663 34.2109375 73.59765625 C33.56201963 96.51407079 22.85430681 117.85341163 6.48876953 133.65234375 C-9.00122235 147.67411403 -29.74703472 156.2337394 -50.625 156.125 C-51.37523437 156.12886719 -52.12546875 156.13273438 -52.8984375 156.13671875 C-56.43633044 156.13044589 -59.59763408 155.95251112 -63 155 C-62.68998047 155.46970215 -62.37996094 155.9394043 -62.06054688 156.42333984 C-53.12835564 169.9873988 -44.55067122 183.74955306 -36.07910156 197.60498047 C-33.97308413 201.04395163 -31.85939777 204.47807156 -29.7421875 207.91015625 C-29.39332489 208.47589859 -29.04446228 209.04164093 -28.68502808 209.62452698 C-26.96818562 212.4086626 -25.25080219 215.19246246 -23.53271484 217.97583008 C-20.70893285 222.55927338 -17.89624987 227.14569366 -15.171875 231.7890625 C-14.76380615 232.48298096 -14.3557373 233.17689941 -13.93530273 233.8918457 C-12.91427083 235.6384119 -11.90380723 237.39114549 -10.89453125 239.14453125 C-7.86320108 243.71340209 -5.36723187 246.91382043 0.0703125 248.26171875 C5.6333747 249.24377186 11.24225215 249.50587111 16.875 249.8125 C28.88428084 250.58142469 40.83918933 251.71803092 52.79815674 253.05429077 C54.71143311 253.26665923 56.6252993 253.4737849 58.53973389 253.67544556 C61.26148213 253.96387831 63.98027833 254.27225553 66.69921875 254.5859375 C67.50454544 254.66832169 68.30987213 254.75070587 69.13960266 254.83558655 C80.05403732 256.15829553 89.29502877 261.32808709 96.390625 269.7109375 C102.89733892 278.96563254 104.19687857 289.90734395 102.57421875 300.87890625 C100.04271834 311.79697246 93.42332196 319.99588564 84.25 326.1796875 C78.26647715 329.83925281 72.03895302 331.14904583 65.14453125 331.89453125 C64.17422218 332.00309196 64.17422218 332.00309196 63.18431091 332.11384583 C61.78943429 332.26982845 60.39428618 332.42339899 58.99890137 332.57476807 C46.48546711 333.9353796 34.01453846 335.51049985 21.55493164 337.29589844 C1.94758827 340.09546404 -17.30076719 342.15094382 -37.125 342.3125 C-37.82732758 342.32221832 -38.52965515 342.33193665 -39.25326538 342.34194946 C-57.05517781 342.55173411 -70.47745083 338.65440941 -83.61328125 326.34375 C-86.42727822 323.58041418 -89.21724529 320.79480127 -92 318 C-92.25168945 318.8156543 -92.50337891 319.63130859 -92.76269531 320.47167969 C-93.71589404 323.55843598 -94.67030704 326.6448137 -95.62548828 329.73095703 C-96.03513904 331.05535569 -96.44433442 332.3798953 -96.85302734 333.70458984 C-99.46572754 342.17179268 -102.15539955 350.60744778 -105 359 C-103.82695312 359.22300781 -102.65390625 359.44601562 -101.4453125 359.67578125 C-94.40219607 361.2459641 -87.65666966 363.75794275 -80.875 366.1875 C-80.18402222 366.43366058 -79.49304443 366.67982117 -78.78112793 366.93344116 C-68.92124269 370.45493098 -59.29250446 374.14367786 -50 379 C-49.030625 379.47566406 -48.06125 379.95132812 -47.0625 380.44140625 C-28.72581671 389.7880212 -15.55302802 405.0060552 -9.0390625 424.421875 C-4.24853967 440.91856266 -5.62086677 456.89483527 -13.640625 472.11328125 C-15.31796238 474.84462117 -17.08591587 477.42989571 -19 480 C-19.52207031 480.70511719 -20.04414063 481.41023438 -20.58203125 482.13671875 C-30.69516824 494.66126067 -45.28242449 502.35353721 -61 505 C-67.48312249 505.53801242 -74.00321694 505.41109402 -80.50292969 505.38818359 C-82.45228875 505.39225533 -84.40164549 505.39760057 -86.35099792 505.40411377 C-91.61311159 505.41771791 -96.87504759 505.41251833 -102.13716412 505.40297651 C-107.65738571 505.39534834 -113.17759272 505.40243387 -118.69781494 505.40713501 C-127.96116857 505.41258155 -137.22445027 505.40542798 -146.48779297 505.39111328 C-157.18749197 505.37476963 -167.88701961 505.3800922 -178.58671451 505.3965925 C-187.79041723 505.41021575 -196.99406844 505.41212349 -206.19777799 505.40427649 C-211.68753192 505.39960709 -217.17720533 505.39895538 -222.66695404 505.40888596 C-227.82497482 505.41756622 -232.98277487 505.41151426 -238.14077187 505.39420319 C-240.03056027 505.39024485 -241.92036732 505.39136117 -243.81014824 505.39799118 C-246.39498218 505.40622218 -248.97911425 505.39586685 -251.56390381 505.38095093 C-252.67811962 505.39098918 -252.67811962 505.39098918 -253.81484485 505.40123022 C-261.96698446 505.31034522 -268.25600329 502.50832014 -274.23828125 496.97265625 C-278.88092098 491.77413505 -281.11659916 485.62213915 -281.10546875 478.71484375 C-281.2644099 463.0008616 -283.50165395 448.96798384 -287.33251953 433.76904297 C-299.63822186 382.71883237 -279.3203371 319.37671282 -263 271 C-262.67531738 270.02095703 -262.35063477 269.04191406 -262.01611328 268.03320312 C-244.22418004 214.43600055 -216.71903853 151.43135329 -163.60546875 124.6875 C-158.51345191 122.30423751 -153.42532285 120.46066384 -148 119 C-147.21882812 118.78730469 -146.43765625 118.57460938 -145.6328125 118.35546875 C-137.57569395 116.47004875 -129.23644665 116.36309162 -121 116 C-121.37511719 115.42894531 -121.75023437 114.85789062 -122.13671875 114.26953125 C-134.33294584 94.94603795 -137.84870778 72.41155906 -133.8125 50.0625 C-129.71091663 32.43523007 -121.62746562 18.68158333 -109 6 C-108.30390625 5.26910156 -107.6078125 4.53820312 -106.890625 3.78515625 C-79.37912043 -23.13986275 -29.75310147 -22.61754661 0 0 Z "
    fill="#53B8F5" transform="translate(290,150)" />
  <path
    d="M0 0 C15.36948861 13.485635 26.52391312 31.55130738 28.22119141 52.26147461 C29.39252949 80.29633012 20.89365533 100.23845479 3 121.5625 C4.02738281 122.02398437 5.05476563 122.48546875 6.11328125 122.9609375 C35.93465875 136.79961595 48.35434591 166.17672651 59.2598877 195.5335083 C78.30400975 247.74229517 99.73803786 313.75642961 75.625 367.34765625 C73.19670494 372.15171115 70.36256613 376.36795875 67 380.5625 C66.34386719 381.39394531 65.68773437 382.22539063 65.01171875 383.08203125 C52.52386605 397.94417404 34.17186149 407.20741396 15 409.5625 C12.25035739 409.70032302 9.51843389 409.80296705 6.76757812 409.85961914 C5.97444717 409.87927231 5.18131622 409.89892548 4.364151 409.91917419 C1.7532634 409.98277478 -0.85771714 410.04035463 -3.46875 410.09765625 C-5.30937361 410.14078038 -7.14999039 410.18419693 -8.99060059 410.22789001 C-12.85386733 410.31869473 -16.71718518 410.40663905 -20.58056641 410.49243164 C-25.46317445 410.60098323 -30.34561837 410.71552556 -35.22804356 410.8319788 C-69.21723061 411.64008404 -69.21723061 411.64008404 -83.77734375 411.6875 C-85.08396973 411.69554405 -85.08396973 411.69554405 -86.41699219 411.70375061 C-102.03193499 411.67415874 -116.54461498 405.92793869 -127.81640625 395.0078125 C-137.78017403 383.84981852 -142.37758042 370.7793994 -142.2109375 355.96484375 C-141.36642185 342.34311905 -134.95904771 330.31979675 -125.13671875 321.046875 C-113.60773458 311.41048887 -100.08388218 309.3169818 -85.5625 308.4375 C-84.89957947 308.39514221 -84.23665894 308.35278442 -83.5536499 308.30914307 C-73.35918002 307.65794699 -63.21465438 307.29290502 -53 307.5625 C-56.75704119 293.92014326 -60.58466001 280.31484203 -64.86547852 266.82592773 C-65.14576904 265.92817627 -65.42605957 265.0304248 -65.71484375 264.10546875 C-65.96355225 263.32196045 -66.21226074 262.53845215 -66.46850586 261.73120117 C-67 259.5625 -67 259.5625 -67 255.5625 C-71.7794103 258.60057476 -76.32314445 261.79158229 -80.72558594 265.36010742 C-91.38360221 273.93731797 -102.33396656 277.4763923 -116 276.5625 C-126.86961008 274.93368554 -136.49572898 271.28079342 -146.5625 267.0625 C-148.14396135 266.40952948 -149.72575782 265.75737011 -151.30786133 265.10595703 C-155.61322233 263.32827503 -159.91107437 261.53310837 -164.20690918 259.73254395 C-167.11891622 258.51268522 -170.03246799 257.29657347 -172.94628906 256.08105469 C-179.03025109 253.54165232 -185.1098099 250.99187259 -191.1875 248.4375 C-192.1568045 248.03072021 -193.12610901 247.62394043 -194.12478638 247.20483398 C-196.9116563 246.03363483 -199.69638594 244.85749435 -202.48046875 243.6796875 C-203.70342148 243.16636368 -203.70342148 243.16636368 -204.95108032 242.64266968 C-211.83243609 239.72040398 -218.76707768 236.71778155 -225 232.5625 C-225.26554687 233.14515625 -225.53109375 233.7278125 -225.8046875 234.328125 C-227.04233566 236.64163725 -228.35171041 238.3825011 -230.125 240.3125 C-230.66382813 240.92609375 -231.20265625 241.5396875 -231.7578125 242.171875 C-234.46272861 243.84948848 -236.74393735 244.22211399 -239.91748047 244.08349609 C-243.96824814 243.07009185 -246.31044818 240.03035119 -249 237 C-250.14303505 235.76693137 -251.28888605 234.53646726 -252.4375 233.30859375 C-253.2578196 232.42429184 -253.2578196 232.42429184 -254.0947113 231.52212524 C-255.89291449 229.67263946 -257.74730772 228.00194635 -259.71118164 226.33154297 C-264.05193186 222.56631656 -268.12755748 218.57949616 -272.18359375 214.51171875 C-272.92456802 213.7717012 -273.6655423 213.03168365 -274.42897034 212.26924133 C-275.97885859 210.7200284 -277.52750558 209.16957273 -279.07495117 207.61791992 C-281.45182249 205.23564495 -283.83404646 202.85881503 -286.21679688 200.48242188 C-287.72688365 198.9716751 -289.23666062 197.46061859 -290.74609375 195.94921875 C-291.45954453 195.23779221 -292.1729953 194.52636566 -292.9080658 193.79338074 C-293.5628743 193.13542007 -294.2176828 192.47745941 -294.89233398 191.79956055 C-295.75881813 190.93188301 -295.75881813 190.93188301 -296.64280701 190.04667664 C-298.49344707 188.02288433 -298.98374514 186.647838 -299.5 183.9375 C-298.95352833 180.24881626 -298.38278843 179.51987154 -295.96484375 176.85546875 C-295.32853027 176.15389648 -294.6922168 175.45232422 -294.03662109 174.72949219 C-290.7727552 171.25669506 -287.44209629 167.86004221 -284.0625 164.5 C-283.39798828 163.83162109 -282.73347656 163.16324219 -282.04882812 162.47460938 C-278.92510303 159.35694389 -275.77906703 156.34229415 -272.40234375 153.5 C-268.41532404 150.06634063 -264.80054356 146.32319777 -261.15625 142.53515625 C-259.89734442 141.23612554 -258.6382264 139.93730069 -257.37890625 138.63867188 C-255.42679933 136.62468331 -253.48171597 134.60567215 -251.55419922 132.56811523 C-249.66917046 130.58000268 -247.75947829 128.61864465 -245.84375 126.66015625 C-245.27579712 126.04777603 -244.70784424 125.43539581 -244.12268066 124.80445862 C-241.30525913 121.96755556 -239.10879282 120.14646341 -235.04101562 119.75927734 C-229.7863178 120.21041718 -226.94057758 123.63456932 -223.5 127.31640625 C-222.82001953 128.01007797 -222.14003906 128.70374969 -221.43945312 129.41844177 C-219.2733113 131.63581874 -217.13637357 133.87896376 -215 136.125 C-212.85790478 138.33983559 -210.71013792 140.54901723 -208.56054688 142.75657654 C-207.22802773 144.12904955 -205.90081665 145.50670491 -204.58007812 146.89051819 C-200.83688149 150.79153274 -196.96923278 154.43733162 -192.85482788 157.94584656 C-189.63357817 160.75346256 -186.63537024 163.78245414 -183.625 166.8125 C-183.01011719 167.42351562 -182.39523437 168.03453125 -181.76171875 168.6640625 C-181.17261719 169.25445312 -180.58351563 169.84484375 -179.9765625 170.453125 C-179.45143066 170.97938477 -178.92629883 171.50564453 -178.38525391 172.04785156 C-175.10630594 175.63308124 -174.79010316 177.83982117 -175 182.5625 C-174.39826462 182.73465027 -173.79652924 182.90680054 -173.17655945 183.08416748 C-166.8857674 184.92233887 -160.76930024 187.06416693 -154.64453125 189.390625 C-152.70406147 190.11534803 -150.76329739 190.83928349 -148.82226562 191.5625 C-145.80441347 192.68972973 -142.78865981 193.82156737 -139.77758789 194.96679688 C-136.84260319 196.08089602 -133.90073735 197.17481507 -130.95703125 198.265625 C-130.0620845 198.61135559 -129.16713776 198.95708618 -128.24507141 199.31329346 C-122.97861499 201.24278596 -119.47379502 201.97915788 -114 200.5625 C-109.91053144 198.2175468 -106.78757765 194.38421952 -103.7421875 190.8359375 C-100.14748139 186.69708299 -96.40348537 182.72044574 -92.625 178.75 C-87.56935426 173.40206313 -82.77105812 167.98415376 -78.19140625 162.22265625 C-74.80202894 158.10827844 -71.14164482 154.25921811 -67.48046875 150.38671875 C-64.99059349 147.55178991 -63.01435464 144.74133004 -61 141.5625 C-62.216875 141.500625 -63.43375 141.43875 -64.6875 141.375 C-83.88771935 139.1781097 -100.49808246 125.98747704 -112.48828125 111.55859375 C-125.85149887 93.91362164 -130.10463492 72.21960554 -127.77734375 50.48291016 C-124.59778172 28.69059505 -111.98777504 10.99760338 -95 -2.4375 C-66.30969188 -22.26932633 -27.44551788 -21.59399756 0 0 Z "
    fill="#1581C9" transform="translate(703,243.4375)" />
  <path
    d="M0 0 C4.20104192 3.46313163 8.1219488 7.18177849 12 11 C13.11568359 12.07894531 13.11568359 12.07894531 14.25390625 13.1796875 C29.81278298 29.31707433 34.48292474 51.94672663 34.2109375 73.59765625 C33.56201963 96.51407079 22.85430681 117.85341163 6.48876953 133.65234375 C-9.00122235 147.67411403 -29.74703472 156.2337394 -50.625 156.125 C-51.37523437 156.12886719 -52.12546875 156.13273438 -52.8984375 156.13671875 C-56.43633044 156.13044589 -59.59763408 155.95251112 -63 155 C-62.68998047 155.46970215 -62.37996094 155.9394043 -62.06054688 156.42333984 C-53.12835564 169.9873988 -44.55067122 183.74955306 -36.07910156 197.60498047 C-33.97308413 201.04395163 -31.85939777 204.47807156 -29.7421875 207.91015625 C-29.39332489 208.47589859 -29.04446228 209.04164093 -28.68502808 209.62452698 C-26.96818562 212.4086626 -25.25080219 215.19246246 -23.53271484 217.97583008 C-20.70893285 222.55927338 -17.89624987 227.14569366 -15.171875 231.7890625 C-14.76380615 232.48298096 -14.3557373 233.17689941 -13.93530273 233.8918457 C-12.91427083 235.6384119 -11.90380723 237.39114549 -10.89453125 239.14453125 C-7.86320108 243.71340209 -5.36723187 246.91382043 0.0703125 248.26171875 C5.6333747 249.24377186 11.24225215 249.50587111 16.875 249.8125 C28.88428084 250.58142469 40.83918933 251.71803092 52.79815674 253.05429077 C54.71143311 253.26665923 56.6252993 253.4737849 58.53973389 253.67544556 C61.26148213 253.96387831 63.98027833 254.27225553 66.69921875 254.5859375 C67.50454544 254.66832169 68.30987213 254.75070587 69.13960266 254.83558655 C80.05403732 256.15829553 89.29502877 261.32808709 96.390625 269.7109375 C102.89733892 278.96563254 104.19687857 289.90734395 102.57421875 300.87890625 C100.04271834 311.79697246 93.42332196 319.99588564 84.25 326.1796875 C78.26647715 329.83925281 72.03895302 331.14904583 65.14453125 331.89453125 C64.17422218 332.00309196 64.17422218 332.00309196 63.18431091 332.11384583 C61.78943429 332.26982845 60.39428618 332.42339899 58.99890137 332.57476807 C46.48546711 333.9353796 34.01453846 335.51049985 21.55493164 337.29589844 C1.94758827 340.09546404 -17.30076719 342.15094382 -37.125 342.3125 C-37.82732758 342.32221832 -38.52965515 342.33193665 -39.25326538 342.34194946 C-57.05517781 342.55173411 -70.47745083 338.65440941 -83.61328125 326.34375 C-86.42727822 323.58041418 -89.21724529 320.79480127 -92 318 C-92.25168945 318.8156543 -92.50337891 319.63130859 -92.76269531 320.47167969 C-93.71589404 323.55843598 -94.67030704 326.6448137 -95.62548828 329.73095703 C-96.03513904 331.05535569 -96.44433442 332.3798953 -96.85302734 333.70458984 C-99.46572754 342.17179268 -102.15539955 350.60744778 -105 359 C-103.82695312 359.22300781 -102.65390625 359.44601562 -101.4453125 359.67578125 C-94.40219607 361.2459641 -87.65666966 363.75794275 -80.875 366.1875 C-80.18402222 366.43366058 -79.49304443 366.67982117 -78.78112793 366.93344116 C-68.92124269 370.45493098 -59.29250446 374.14367786 -50 379 C-49.030625 379.47566406 -48.06125 379.95132812 -47.0625 380.44140625 C-28.72581671 389.7880212 -15.55302802 405.0060552 -9.0390625 424.421875 C-4.24853967 440.91856266 -5.62086677 456.89483527 -13.640625 472.11328125 C-15.31796238 474.84462117 -17.08591587 477.42989571 -19 480 C-19.52207031 480.70511719 -20.04414063 481.41023438 -20.58203125 482.13671875 C-30.69516824 494.66126067 -45.28242449 502.35353721 -61 505 C-67.48312249 505.53801242 -74.00321694 505.41109402 -80.50292969 505.38818359 C-82.45228875 505.39225533 -84.40164549 505.39760057 -86.35099792 505.40411377 C-91.61311159 505.41771791 -96.87504759 505.41251833 -102.13716412 505.40297651 C-107.65738571 505.39534834 -113.17759272 505.40243387 -118.69781494 505.40713501 C-127.96116857 505.41258155 -137.22445027 505.40542798 -146.48779297 505.39111328 C-157.18749197 505.37476963 -167.88701961 505.3800922 -178.58671451 505.3965925 C-187.79041723 505.41021575 -196.99406844 505.41212349 -206.19777799 505.40427649 C-211.68753192 505.39960709 -217.17720533 505.39895538 -222.66695404 505.40888596 C-227.82497482 505.41756622 -232.98277487 505.41151426 -238.14077187 505.39420319 C-240.03056027 505.39024485 -241.92036732 505.39136117 -243.81014824 505.39799118 C-246.39498218 505.40622218 -248.97911425 505.39586685 -251.56390381 505.38095093 C-252.67811962 505.39098918 -252.67811962 505.39098918 -253.81484485 505.40123022 C-261.96698446 505.31034522 -268.25600329 502.50832014 -274.23828125 496.97265625 C-278.88092098 491.77413505 -281.11659916 485.62213915 -281.10546875 478.71484375 C-281.2644099 463.0008616 -283.50165395 448.96798384 -287.33251953 433.76904297 C-299.63822186 382.71883237 -279.3203371 319.37671282 -263 271 C-262.67531738 270.02095703 -262.35063477 269.04191406 -262.01611328 268.03320312 C-244.22418004 214.43600055 -216.71903853 151.43135329 -163.60546875 124.6875 C-158.51345191 122.30423751 -153.42532285 120.46066384 -148 119 C-147.21882812 118.78730469 -146.43765625 118.57460938 -145.6328125 118.35546875 C-137.57569395 116.47004875 -129.23644665 116.36309162 -121 116 C-121.37511719 115.42894531 -121.75023437 114.85789062 -122.13671875 114.26953125 C-134.33294584 94.94603795 -137.84870778 72.41155906 -133.8125 50.0625 C-129.71091663 32.43523007 -121.62746562 18.68158333 -109 6 C-108.30390625 5.26910156 -107.6078125 4.53820312 -106.890625 3.78515625 C-79.37912043 -23.13986275 -29.75310147 -22.61754661 0 0 Z M-177 155 C-177.79921875 155.65355469 -178.5984375 156.30710937 -179.421875 156.98046875 C-204.37026608 178.15481978 -220.52385979 211.44776337 -233 241 C-233.30115723 241.69915527 -233.60231445 242.39831055 -233.91259766 243.11865234 C-245.53837585 270.1885627 -254.11749012 298.2006733 -260.7890625 326.8671875 C-261.64428634 330.53961928 -262.55529717 334.19423986 -263.48828125 337.84765625 C-271.50669928 369.79875384 -277.65624111 406.77113096 -268 439 C-267.70319336 440.01900391 -267.70319336 440.01900391 -267.40039062 441.05859375 C-263.01115103 455.8598483 -257.28720144 471.95339477 -244 481 C-240.74908715 482.6565161 -237.48604747 483.93087788 -234 485 C-232.95431854 485.34100739 -231.90863708 485.68201477 -230.83126831 486.03335571 C-224.03719582 487.7011732 -216.96361227 487.29566106 -210.01220703 487.29052734 C-208.39180188 487.29651843 -206.77139958 487.30332531 -205.15100098 487.31088257 C-200.76663018 487.32848887 -196.38233755 487.33323562 -191.99793482 487.33451414 C-189.25466641 487.33593913 -186.51141766 487.34021528 -183.76815414 487.34550858 C-174.18640641 487.36398978 -164.60471419 487.37218142 -155.02294922 487.37060547 C-146.10923991 487.36940399 -137.1957727 487.39051244 -128.28212464 487.4220928 C-120.61306918 487.44828978 -112.94409265 487.45897136 -105.27499282 487.45769465 C-100.7016757 487.4571861 -96.12857398 487.46280998 -91.55530167 487.48405075 C-87.25252277 487.50349145 -82.95016355 487.50351805 -78.64736938 487.48901749 C-77.07447569 487.48693563 -75.5015553 487.49159292 -73.92870712 487.5037384 C-65.23276203 487.56650351 -57.82585577 487.13758361 -50 483 C-48.97648438 482.47019531 -47.95296875 481.94039062 -46.8984375 481.39453125 C-35.10718236 474.00218089 -27.83108949 464.41717802 -24 451 C-22.58494137 438.2644723 -24.77609211 425.94323681 -32.75 415.625 C-34.14115536 414.06027404 -35.55794866 412.51794878 -37 411 C-37.67933594 410.23171875 -38.35867187 409.4634375 -39.05859375 408.671875 C-54.03524494 392.51357978 -76.93550321 385.9351436 -97.26416016 379.25610352 C-102.73334259 377.45748531 -108.12708457 375.50571662 -113.5 373.4375 C-114.30953125 373.13392578 -115.1190625 372.83035156 -115.953125 372.51757812 C-117.10554688 372.07381836 -117.10554688 372.07381836 -118.28125 371.62109375 C-118.97283203 371.3573999 -119.66441406 371.09370605 -120.37695312 370.82202148 C-122 370 -122 370 -123 368 C-123.33771056 362.61013951 -122.40889806 357.9956477 -120.875 352.875 C-120.65199219 352.10220703 -120.42898437 351.32941406 -120.19921875 350.53320312 C-119.720873 348.87749255 -119.2386662 347.22289338 -118.75292969 345.56933594 C-117.22032101 340.33938336 -115.73780135 335.09486865 -114.24731445 329.8527832 C-113.01356658 325.52043165 -111.76331432 321.19467402 -110.47265625 316.87890625 C-110.00249281 315.27347011 -109.53243573 313.66800281 -109.0625 312.0625 C-108.83884766 311.33546875 -108.61519531 310.6084375 -108.38476562 309.859375 C-107.13213292 305.52616348 -106.58363436 302.31932994 -108 298 C-109.6288732 295.76996095 -111.20720597 293.82878935 -113.0625 291.8125 C-114.08097473 290.65745446 -115.09657814 289.49987111 -116.109375 288.33984375 C-116.85670898 287.48688721 -116.85670898 287.48688721 -117.61914062 286.61669922 C-120.17403481 283.62544935 -122.4215155 280.43203021 -124.6796875 277.21484375 C-126.58945754 274.56881557 -128.55301447 272.00464144 -130.5703125 269.44140625 C-131.20606201 268.61850098 -131.84181152 267.7955957 -132.49682617 266.94775391 C-133.76210089 265.31112607 -135.0429058 263.68635268 -136.34106445 262.07568359 C-140.09156646 257.1672636 -141.78242451 253.32214337 -142.30493164 247.14868164 C-142 245 -142 245 -140.69702148 243.21655273 C-139 242 -139 242 -135.75 241.9375 C-127.37290542 244.31101013 -122.89865637 251.4814293 -118.1875 258.375 C-117.06195281 260.01192883 -115.93074591 261.64498559 -114.79296875 263.2734375 C-114.3033667 263.98935059 -113.81376465 264.70526367 -113.30932617 265.44287109 C-112.87724854 265.95672363 -112.4451709 266.47057617 -112 267 C-111.34 267 -110.68 267 -110 267 C-109.63068359 268.07894531 -109.63068359 268.07894531 -109.25390625 269.1796875 C-107.85523354 272.32561179 -106.15960297 274.49923458 -103.9375 277.125 C-103.12796875 278.09050781 -102.3184375 279.05601562 -101.484375 280.05078125 C-100.66453125 281.02402344 -99.8446875 281.99726563 -99 283 C-97.56005869 284.76884877 -96.12252872 286.53966343 -94.6875 288.3125 C-76.06188741 312.87300114 -76.06188741 312.87300114 -49 325 C-46.29693084 325.11510944 -43.6320076 325.18152132 -40.9296875 325.17578125 C-40.14979462 325.17435623 -39.36990173 325.17293121 -38.56637573 325.17146301 C-29.93357613 325.08572158 -21.38112399 324.3205677 -12.79638672 323.45581055 C-10.13470137 323.18847439 -7.47191394 322.93601356 -4.80859375 322.68554688 C4.7484705 321.76474304 14.22567462 320.57947539 23.71183777 319.09843445 C29.15557643 318.25464469 34.59839489 317.53800534 40.07421875 316.9375 C40.79240784 316.85812698 41.51059692 316.77875397 42.25054932 316.69697571 C45.13077718 316.38131948 48.01138979 316.0703424 50.89331055 315.77050781 C68.24602108 314.0272826 68.24602108 314.0272826 82 304 C85.69183493 298.11613808 85.8559289 291.76277892 85 285 C83.43559628 281.48337944 83.43559628 281.48337944 81 279 C80.401875 278.278125 79.80375 277.55625 79.1875 276.8125 C73.61068652 272.19171169 67.57106162 271.452041 60.59765625 270.9375 C59.69464783 270.86120865 58.7916394 270.7849173 57.86126709 270.70631409 C55.9293931 270.54447139 53.99706576 270.3879657 52.06436157 270.23635864 C49.03549326 269.99787356 46.00837218 269.74321865 42.98120117 269.48413086 C34.50643581 268.76255332 26.02950271 268.07365915 17.54847717 267.42984009 C14.63804476 267.20554018 11.72898315 266.9661396 8.82003784 266.72338867 C6.8728473 266.56733637 4.92382747 266.43465805 2.97485352 266.30273438 C-5.71131933 265.57775138 -13.88362252 263.92220483 -19.87890625 257.08984375 C-22.02214876 253.96773542 -24.02797638 250.83326817 -25.9375 247.5625 C-26.72174338 246.2325342 -27.50696655 244.90314585 -28.29296875 243.57421875 C-28.7214209 242.8476709 -29.14987305 242.12112305 -29.59130859 241.37255859 C-32.27540226 236.85193082 -35.01466621 232.36474357 -37.75 227.875 C-38.34651367 226.89587646 -38.94302734 225.91675293 -39.55761719 224.90795898 C-48.3158689 210.54841787 -57.11254162 196.22111027 -66.30859375 182.13671875 C-68.17564258 179.27709625 -70.01890254 176.40379051 -71.84765625 173.51953125 C-82.97354248 156.01150138 -94.30629753 141.67141499 -115.0859375 135.734375 C-139.11600611 131.22573937 -158.79035139 139.40431708 -177 155 Z "
    fill="#1581C9" transform="translate(290,150)" />
  <path
    d="M0 0 C20.11885524 12.55121245 30.09284591 32.37024214 37.86328125 54.078125 C38.97863999 56.9422561 40.21914043 59.67022042 41.52734375 62.44921875 C44.20654096 68.29590574 46.16835263 74.23408918 48.00390625 80.390625 C48.34341309 81.51911865 48.68291992 82.6476123 49.03271484 83.81030273 C50.07741646 87.31265396 51.10524815 90.81957151 52.12890625 94.328125 C52.44150391 95.38515625 52.75410156 96.4421875 53.07617188 97.53125 C58.46123375 115.88889136 62.07524079 134.46304006 65.12890625 153.328125 C65.25265625 154.07280029 65.37640625 154.81747559 65.50390625 155.5847168 C67.80016601 171.17673063 67.67258608 189.18252555 63.12890625 204.328125 C62.77699219 205.52179688 62.42507813 206.71546875 62.0625 207.9453125 C57.05818763 223.30508315 47.96689382 236.16545324 33.625 244.0859375 C20.36709922 250.68376606 7.49149875 251.65240297 -7.09375 251.9609375 C-8.76453773 252.00225983 -10.4353089 252.04425612 -12.10606384 252.08688354 C-15.60324026 252.17435286 -19.10048463 252.25619698 -22.59790039 252.33349609 C-26.99832927 252.4308387 -31.39843165 252.53829574 -35.79853249 252.64938736 C-45.75406153 252.90022072 -55.70985491 253.11109103 -65.6669693 253.28773499 C-67.76802911 253.32623637 -69.86895834 253.36898454 -71.96990967 253.41296387 C-75.53985338 253.48267659 -79.10929804 253.5309194 -82.6796875 253.5703125 C-84.17134178 253.60307785 -84.17134178 253.60307785 -85.69313049 253.63650513 C-98.56498162 253.70656417 -108.24859734 249.64934783 -117.68359375 241.015625 C-124.73610181 233.65221751 -126.24055011 224.54663922 -126.15234375 214.72265625 C-125.54311195 207.36956692 -122.52767315 200.22783815 -116.87109375 195.328125 C-106.32972337 187.26005349 -96.43372375 186.16424618 -83.49609375 185.265625 C-82.36502197 185.18111084 -81.2339502 185.09659668 -80.06860352 185.00952148 C-74.72978558 184.62192052 -69.39607176 184.28793384 -64.046875 184.0859375 C-62.71245361 184.03385132 -62.71245361 184.03385132 -61.35107422 183.98071289 C-59.71898903 183.9228831 -58.08642242 183.87677452 -56.45361328 183.84545898 C-50.9636411 183.65959121 -45.8672723 182.7019822 -40.87109375 180.328125 C-37.92489189 177.1663474 -36.93597135 175.40379565 -36.67578125 171.08984375 C-36.88070502 167.14301192 -37.56837119 163.71452793 -38.55859375 159.890625 C-38.73503418 159.20540771 -38.91147461 158.52019043 -39.09326172 157.81420898 C-40.74739389 151.51975546 -42.69792752 145.3283365 -44.72265625 139.14453125 C-45.54399408 136.41511947 -46.2307203 133.80294352 -46.8203125 131.02734375 C-48.14047523 124.84304145 -50.04892228 118.82821872 -51.92382812 112.79296875 C-52.18873047 111.90222656 -52.45363281 111.01148438 -52.7265625 110.09375 C-52.97043701 109.29743164 -53.21431152 108.50111328 -53.46557617 107.68066406 C-53.95025365 104.86889275 -53.74181233 103.04304321 -52.87109375 100.328125 C-51.47583008 98.64648438 -51.47583008 98.64648438 -49.703125 97.171875 C-49.05666016 96.62402344 -48.41019531 96.07617188 -47.74414062 95.51171875 C-47.06416016 94.95613281 -46.38417969 94.40054688 -45.68359375 93.828125 C-44.69262695 92.99474609 -44.69262695 92.99474609 -43.68164062 92.14453125 C-42.37626886 91.0492045 -41.06531675 89.96048953 -39.74853516 88.87890625 C-38.52594006 87.86903316 -37.31396572 86.8461171 -36.11474609 85.80859375 C-32.0815691 82.328125 -32.0815691 82.328125 -29.87109375 82.328125 C-29.87109375 81.668125 -29.87109375 81.008125 -29.87109375 80.328125 C-29.10796875 79.73 -28.34484375 79.131875 -27.55859375 78.515625 C-24.73212257 76.21500892 -23.33825204 74.64853586 -21.87109375 71.328125 C-21.61182801 67.56877183 -21.67897937 64.90446813 -22.87109375 61.328125 C-29.01286996 60.65811305 -32.2352222 61.54980106 -37.20703125 65.171875 C-41.21894404 68.41905368 -45.10831333 71.80031813 -48.98364258 75.20874023 C-53.43741882 79.12053141 -57.96810937 82.90536116 -62.62109375 86.578125 C-63.20528076 87.04371826 -63.78946777 87.50931152 -64.39135742 87.98901367 C-66.88142671 89.93726744 -68.84579114 91.3196908 -71.87109375 92.328125 C-71.87109375 92.988125 -71.87109375 93.648125 -71.87109375 94.328125 C-73.91753829 96.09908662 -75.97081992 97.7538494 -78.12109375 99.390625 C-78.75281494 99.87797119 -79.38453613 100.36531738 -80.03540039 100.86743164 C-81.9758774 102.36064851 -83.92327763 103.84450108 -85.87109375 105.328125 C-86.98979396 106.18983079 -88.10829655 107.05179323 -89.2265625 107.9140625 C-103.40317418 118.73069143 -103.40317418 118.73069143 -110.87109375 119.328125 C-112.78921875 119.5446875 -112.78921875 119.5446875 -114.74609375 119.765625 C-122.22512255 119.60623586 -129.06373029 116.14233553 -135.87109375 113.328125 C-137.53978516 112.64435791 -137.53978516 112.64435791 -139.2421875 111.94677734 C-147.79865155 108.43930617 -156.33743252 104.89073328 -164.87109375 101.328125 C-166.97000706 100.45431893 -169.06896311 99.5806155 -171.16796875 98.70703125 C-177.06509987 96.24989328 -182.95460179 93.77494272 -188.83740234 91.28369141 C-192.3606553 89.79407822 -195.88474612 88.32271782 -199.44140625 86.9140625 C-215.35383524 80.60606635 -215.35383524 80.60606635 -219.43359375 73.640625 C-221.48267668 68.70764759 -221.84764445 63.56374977 -220.87109375 58.328125 C-218.49609375 55.265625 -218.49609375 55.265625 -215.87109375 53.328125 C-215.21109375 52.668125 -214.55109375 52.008125 -213.87109375 51.328125 C-201.28280244 49.07598249 -188.25047256 56.02281527 -176.89453125 60.80078125 C-173.57419027 62.12768413 -170.19730828 63.16307999 -166.7734375 64.19140625 C-158.54838221 66.6774605 -150.56434926 69.73878874 -142.53710938 72.79296875 C-131.32321589 77.01331979 -121.23909635 80.46227533 -109.421875 76.53515625 C-105.01025919 74.44757695 -101.78548083 71.27633915 -98.37109375 67.83837891 C-96.64772027 66.10322456 -94.90030946 64.39396404 -93.15234375 62.68359375 C-87.40322353 57.02693743 -81.67354257 51.3685236 -76.46484375 45.203125 C-74.52783504 42.92429122 -72.5120375 40.72487843 -70.49609375 38.515625 C-67.40114545 35.08608769 -64.41226087 31.5983446 -61.49609375 28.015625 C-60.38621094 26.65244141 -60.38621094 26.65244141 -59.25390625 25.26171875 C-58.01701285 23.73892048 -56.78056377 22.21574872 -55.54980469 20.68798828 C-49.93070842 13.73700246 -44.44063305 7.24497619 -36.87109375 2.328125 C-36.17371094 1.82410156 -35.47632813 1.32007813 -34.7578125 0.80078125 C-25.29101868 -5.10165842 -9.91740971 -4.89833801 0 0 Z "
    fill="#53B8F5" transform="translate(704.87109375,383.671875)" />
  <path
    d="M0 0 C0.69974442 -0.0065712 1.39948883 -0.0131424 2.12043762 -0.01991272 C4.43022787 -0.0395806 6.73995326 -0.05129423 9.04980469 -0.0612793 C9.84152824 -0.06535482 10.6332518 -0.06943035 11.44896698 -0.07362938 C15.64029171 -0.09446321 19.83158397 -0.10877605 24.02294922 -0.11816406 C28.33814037 -0.12921799 32.65281439 -0.16361348 36.96782303 -0.20333576 C40.2982678 -0.22955865 43.62859042 -0.23786093 46.95912933 -0.24144554 C48.54905435 -0.24629751 50.13897443 -0.25787167 51.72879791 -0.27648354 C67.21896169 -0.44654272 67.21896169 -0.44654272 73.97167969 4.17700195 C78.78220329 9.24071101 80.22410116 13.01351973 80.19873047 19.96508789 C80.19902252 20.63866837 80.19931458 21.31224884 80.19961548 22.00624084 C80.1982261 24.22475221 80.1826837 26.44292451 80.16699219 28.66137695 C80.16326066 30.2026552 80.16041435 31.74393582 80.15841675 33.28521729 C80.1507913 37.33602481 80.13115221 41.38668825 80.10900879 45.43743896 C80.08852688 49.57326305 80.07941002 53.70911049 80.06933594 57.8449707 C80.04790524 65.95571381 80.0137825 74.06633994 79.97167969 82.17700195 C80.61203659 82.17256073 81.25239349 82.16811951 81.91215515 82.1635437 C88.57935351 82.11928315 95.2465101 82.08912412 101.91381836 82.06713867 C104.40179133 82.05708363 106.8897525 82.04343779 109.37768555 82.02612305 C112.9546195 82.00185329 116.53139714 81.99051376 120.10839844 81.98168945 C121.22002853 81.97136688 122.33165863 81.96104431 123.47697449 81.95040894 C124.51767593 81.95025787 125.55837738 81.95010681 126.63061523 81.94995117 C127.99962227 81.94328934 127.99962227 81.94328934 129.39628601 81.93649292 C132.26956953 82.20482108 134.39338225 82.89193978 136.97167969 84.17700195 C138.5255608 87.28476419 138.12783226 90.57978849 138.1328125 93.99145508 C138.1377774 94.7980809 138.14274231 95.60470673 138.14785767 96.43577576 C138.16248977 99.10994308 138.16928201 101.78405114 138.17480469 104.45825195 C138.18055402 106.31148277 138.18631178 108.16471357 138.19207764 110.01794434 C138.20258975 113.90511351 138.20843145 117.79226197 138.21191406 121.67944336 C138.21740793 126.67001289 138.24145402 131.66031082 138.26988602 136.65079498 C138.28846935 140.47854423 138.29371562 144.30622739 138.29524994 148.13401794 C138.29828532 149.97449737 138.30634345 151.8149754 138.31943512 153.65541077 C138.33641068 156.22467008 138.3346368 158.79325686 138.328125 161.36254883 C138.33733978 162.12832748 138.34655457 162.89410614 138.35604858 163.68309021 C138.33917236 165.7989502 138.33917236 165.7989502 137.97167969 169.17700195 C134.34566485 171.59434518 131.73121359 171.44461057 127.5453186 171.3997345 C126.401329 171.39934749 126.401329 171.39934749 125.23422849 171.39895266 C122.67084099 171.3955525 120.10775846 171.37768638 117.54443359 171.35986328 C115.70976486 171.35434967 113.87509343 171.34968044 112.04042053 171.34579468 C107.05067941 171.33241879 102.0610848 171.30608057 97.07141542 171.27665544 C92.90882643 171.25316839 88.74622087 171.23569908 84.58360326 171.21815699 C74.76400694 171.17657597 64.94450692 171.12426509 55.125 171.06542969 C44.98957633 171.00489542 34.85419251 170.96265674 24.71864569 170.92940503 C16.02212193 170.90021291 7.3257034 170.85952933 -1.37072623 170.80964106 C-6.5670621 170.77995745 -11.76332487 170.75469392 -16.95972824 170.74051857 C-21.84682616 170.72669699 -26.73363413 170.69854089 -31.62059212 170.6593132 C-33.41485607 170.64731499 -35.2091622 170.64039566 -37.00346565 170.63891029 C-39.4519632 170.63607965 -41.8996438 170.6149505 -44.34799194 170.58918762 C-45.05898871 170.59267096 -45.76998547 170.5961543 -46.50252759 170.59974319 C-50.80635358 170.52998181 -53.66707152 169.93294568 -57.02832031 167.17700195 C-57.52808925 164.40011916 -57.68324887 162.22738792 -57.62768555 159.44848633 C-57.63162827 158.66282791 -57.63557098 157.87716949 -57.63963318 157.06770325 C-57.64635168 154.46807297 -57.61716496 151.87019452 -57.58691406 149.27075195 C-57.58266464 147.46618999 -57.58033547 145.66162256 -57.57984924 143.85705566 C-57.57367959 140.07396701 -57.55095986 136.29146946 -57.51538086 132.50854492 C-57.47010785 127.65599033 -57.45535527 122.80397155 -57.45164394 117.95122528 C-57.44721772 114.22461649 -57.43191806 110.49812052 -57.41276741 106.77156067 C-57.40387917 104.98217193 -57.3971521 103.19277113 -57.39260674 101.40336609 C-57.38357607 98.90387694 -57.36119579 96.40487503 -57.3347168 93.90551758 C-57.33405212 93.16360672 -57.33338745 92.42169586 -57.33270264 91.65730286 C-57.27847999 87.95371268 -57.13797578 86.34148515 -55.02832031 83.17700195 C-51.12756424 81.96773724 -47.2542553 82.0614692 -43.19628906 82.0793457 C-41.90400391 82.08256836 -40.61171875 82.08579102 -39.28027344 82.08911133 C-37.92545505 82.0974653 -36.57063734 82.10593023 -35.21582031 82.11450195 C-33.84147297 82.11952196 -32.46712387 82.12408399 -31.09277344 82.12817383 C-27.73791108 82.13994528 -24.3831381 82.15638912 -21.02832031 82.17700195 C-21.03498215 81.35538574 -21.04164398 80.53376953 -21.04850769 79.68725586 C-21.1087813 71.91964143 -21.15437692 64.15214144 -21.18375683 56.38435364 C-21.19936945 52.39146901 -21.22052642 48.39877869 -21.25463867 44.40600586 C-21.28739036 40.5480561 -21.3052064 36.69029248 -21.31295204 32.83221436 C-21.31846734 31.36510287 -21.32923704 29.89800083 -21.34551048 28.43096924 C-21.52623092 11.45402954 -21.52623092 11.45402954 -16.34472656 5.1184082 C-15.47654297 4.43584961 -15.47654297 4.43584961 -14.59082031 3.73950195 C-13.72650391 3.02987305 -13.72650391 3.02987305 -12.84472656 2.3059082 C-8.82133584 -0.19465076 -4.63783986 0.03612514 0 0 Z "
    fill="#1481C8" transform="translate(368.0283203125,482.822998046875)" />
  <path
    d="M0 0 C1.33263491 1.12235221 2.64673235 2.26723971 3.9375 3.4375 C4.55882812 3.99050781 5.18015625 4.54351562 5.8203125 5.11328125 C17.13010782 15.76211451 23.66106747 30.63405769 24.2734375 46.109375 C24.43909149 57.20547675 24.53285686 67.16633036 19.9375 77.4375 C19.463125 78.58089844 18.98875 79.72429687 18.5 80.90234375 C14.39081154 89.99984993 9.09462772 96.58938476 1.9375 103.4375 C0.76574219 104.56478516 0.76574219 104.56478516 -0.4296875 105.71484375 C-11.72420773 115.62131688 -26.85620463 120.85047857 -41.75 120.75 C-42.62849609 120.74436035 -43.50699219 120.7387207 -44.41210938 120.73291016 C-62.68074954 120.3944779 -77.33424935 113.3041012 -90.0625 100.4375 C-96.47089184 93.17529548 -101.15124732 85.27308391 -105.0625 76.4375 C-105.57490234 75.33728516 -105.57490234 75.33728516 -106.09765625 74.21484375 C-112.0169544 57.17589241 -110.62305476 37.399982 -102.875 21.3125 C-99.6715242 15.04631365 -95.84365823 9.59754247 -91.0625 4.4375 C-90.09957031 3.39335937 -90.09957031 3.39335937 -89.1171875 2.328125 C-65.06551804 -21.26628839 -25.77741906 -19.38777019 0 0 Z "
    fill="#53B9F5" transform="translate(282.0625,166.5625)" />
  <path
    d="M0 0 C11.60690982 8.73600497 20.20188587 20.88470507 23.38671875 35.1875 C25.22299368 56.7913359 21.63700328 75.25472091 7.51171875 92.125 C-3.89183582 104.10538807 -19.93749497 111.94398964 -36.44702148 112.64086914 C-52.60819654 112.94489597 -66.15651062 107.411278 -77.98706055 96.22973633 C-90.21412346 84.18525979 -96.60056521 70.05300865 -96.90551758 52.82250977 C-97.02455443 34.0390679 -97.02455443 34.0390679 -92.61328125 25.1875 C-92.26265625 24.42179687 -91.91203125 23.65609375 -91.55078125 22.8671875 C-84.05940803 7.93646449 -71.19073187 -3.06394731 -55.61328125 -8.8125 C-54.75347656 -9.13089844 -53.89367187 -9.44929687 -53.0078125 -9.77734375 C-34.68568648 -15.65016701 -15.39099654 -10.67477189 0 0 Z "
    fill="#53B9F5" transform="translate(689.61328125,255.8125)" />
  <path
    d="M0 0 C4.08469193 1.2800247 6.6488776 4.32544353 9.50549316 7.38237 C10.18547363 8.07604172 10.8654541 8.76971344 11.56604004 9.48440552 C13.73218186 11.70178249 15.8691196 13.9449275 18.00549316 16.19096375 C20.14758838 18.40579933 22.29535525 20.61498097 24.44494629 22.82254028 C25.77746544 24.1950133 27.10467651 25.57266865 28.42541504 26.95648193 C32.16861168 30.85749648 36.03626038 34.50329537 40.15066528 38.0118103 C43.371915 40.81942631 46.37012292 43.84841788 49.38049316 46.87846375 C50.30281738 47.79498718 50.30281738 47.79498718 51.24377441 48.73002625 C51.83287598 49.32041687 52.42197754 49.9108075 53.02893066 50.51908875 C53.5540625 51.04534851 54.07919434 51.57160828 54.62023926 52.11381531 C57.89918723 55.69904499 58.21539 57.90578492 58.00549316 62.62846375 C55.88024063 62.02518601 53.75530612 61.4207879 51.63049316 60.81596375 C50.98781494 60.63581726 50.34513672 60.45567078 49.6829834 60.27006531 C46.88535374 59.48042586 44.11645006 58.66786746 41.37658691 57.69487 C32.56236862 54.57782833 22.26578289 53.69283396 13.56799316 57.56596375 C6.42875961 61.7829819 0.64276958 68.36754922 -2.36560059 76.1245575 C-4.84851651 86.00995568 -2.89926195 94.85153353 2.00549316 103.62846375 C3.3376574 105.29606502 4.67076909 106.96291062 6.00549316 108.62846375 C6.00549316 109.28846375 6.00549316 109.94846375 6.00549316 110.62846375 C6.66549316 110.62846375 7.32549316 110.62846375 8.00549316 110.62846375 C7.4874838 114.79442634 6.34574329 116.92460304 3.44299316 119.94096375 C2.8023291 120.63834656 2.16166504 121.33572937 1.50158691 122.054245 C-1.33424109 123.84272494 -3.57423682 124.3317204 -6.9317627 124.1648407 C-10.96171069 123.11693021 -13.31008828 120.09053122 -15.99450684 117.06596375 C-17.13754188 115.83289511 -18.28339288 114.60243101 -19.43200684 113.3745575 C-20.25232643 112.49025558 -20.25232643 112.49025558 -21.08921814 111.58808899 C-22.88742132 109.73860321 -24.74181455 108.06791009 -26.70568848 106.39750671 C-31.0464387 102.6322803 -35.12206431 98.6454599 -39.17810059 94.5776825 C-40.289562 93.46765617 -40.289562 93.46765617 -41.42347717 92.33520508 C-42.97336543 90.78599215 -44.52201241 89.23553648 -46.06945801 87.68388367 C-48.44632933 85.30160869 -50.82855329 82.92477878 -53.21130371 80.54838562 C-54.72139048 79.03763885 -56.23116746 77.52658234 -57.74060059 76.0151825 C-58.45405136 75.30375595 -59.16750214 74.59232941 -59.90257263 73.85934448 C-60.55738113 73.20138382 -61.21218964 72.54342316 -61.88684082 71.86552429 C-62.75332497 70.99784676 -62.75332497 70.99784676 -63.63731384 70.11264038 C-65.4879539 68.08884807 -65.97825198 66.71380175 -66.49450684 64.00346375 C-65.94803517 60.31478 -65.37729527 59.58583529 -62.95935059 56.9214325 C-62.32303711 56.21986023 -61.68672363 55.51828796 -61.03112793 54.79545593 C-57.76726204 51.3226588 -54.43660312 47.92600595 -51.05700684 44.56596375 C-50.06023926 43.56339539 -50.06023926 43.56339539 -49.04333496 42.54057312 C-45.91960987 39.42290763 -42.77357387 36.4082579 -39.39685059 33.56596375 C-35.40983087 30.13230437 -31.7950504 26.38916151 -28.15075684 22.60112 C-26.89185126 21.30208929 -25.63273323 20.00326443 -24.37341309 18.70463562 C-22.42130616 16.69064705 -20.4762228 14.67163589 -18.54870605 12.63407898 C-16.66367729 10.64596643 -14.75398512 8.68460839 -12.83825684 6.72612 C-12.27030396 6.11373978 -11.70235107 5.50135956 -11.1171875 4.87042236 C-7.68332962 1.41282052 -5.00110647 -0.42936786 0 0 Z "
    fill="#7534CA" transform="translate(469.9945068359375,363.3715362548828)" />
  <path
    d="M0 0 C21.78 0 43.56 0 66 0 C66 21.12 66 42.24 66 64 C44.22 64 22.44 64 0 64 C0 42.88 0 21.76 0 0 Z "
    fill="#4DB5EF" transform="translate(365,501)" />
  <path
    d="M0 0 C24.09 0 48.18 0 73 0 C73 17.82 73 35.64 73 54 C48.91 54 24.82 54 0 54 C0 36.18 0 18.36 0 0 Z "
    fill="#7735CA" transform="translate(416,582)" />
  <path
    d="M0 0 C17.42950592 -0.04010881 17.42950592 -0.04010881 24.83398438 -0.04882812 C29.89511152 -0.05481611 34.95622064 -0.06191521 40.01733398 -0.07543945 C44.09568543 -0.08626991 48.17401757 -0.09227717 52.25238228 -0.09487724 C53.81177639 -0.09673121 55.3711694 -0.10035127 56.93055534 -0.10573006 C59.10729162 -0.11294262 61.28394714 -0.11399085 63.46069336 -0.11352539 C65.32267616 -0.11685631 65.32267616 -0.11685631 67.22227478 -0.12025452 C70 0 70 0 71 1 C71.09340434 2.62674778 71.11745171 4.25754051 71.11352539 5.88696289 C71.11340454 6.94258423 71.11328369 7.99820557 71.11315918 9.08581543 C71.10804321 10.2034729 71.10292725 11.32113037 71.09765625 12.47265625 C71.09664917 13.49387573 71.09564209 14.51509521 71.09460449 15.56726074 C71.08935415 19.39901851 71.07539303 23.23076033 71.0625 27.0625 C71.041875 35.621875 71.02125 44.18125 71 53 C47.57 53 24.14 53 0 53 C0 35.51 0 18.02 0 0 Z "
    fill="#4CB4EE" transform="translate(328,583)" />
  <path
    d="M0 0 C1.113395 -0.0131424 1.113395 -0.0131424 2.24928284 -0.02655029 C4.68827816 -0.04844984 7.12544132 -0.03402712 9.56445312 -0.01708984 C11.26786647 -0.02046074 12.97127747 -0.02531564 14.67468262 -0.03158569 C18.23892187 -0.03894416 21.80253316 -0.02828517 25.36669922 -0.00488281 C29.92668391 0.02360501 34.48519712 0.00719543 39.04512787 -0.02274513 C42.56088268 -0.04084626 46.07629081 -0.03504733 49.59205627 -0.02210617 C51.2729154 -0.01877991 52.9538064 -0.02283178 54.6346283 -0.03450394 C56.98773083 -0.04726006 59.33847838 -0.02777371 61.69140625 0 C62.38041519 -0.01012115 63.06942413 -0.02024231 63.77931213 -0.03067017 C69.30719252 0.08970395 71.58645912 1.88706272 75.34570312 5.64697266 C76.76612133 8.48780907 76.66022585 10.50174543 76.34570312 13.64697266 C74.8143158 15.80795288 74.8143158 15.80795288 72.34570312 17.64697266 C69.60948018 18.0519887 67.27156314 18.21472992 64.53540039 18.19628906 C63.3615126 18.21162186 63.3615126 18.21162186 62.16390991 18.2272644 C59.57966433 18.25504094 56.99648639 18.25314488 54.41210938 18.24853516 C52.61376042 18.25630993 50.81541512 18.26497945 49.01707458 18.27450562 C45.24848524 18.28942649 41.48027063 18.28885051 37.71166992 18.27832031 C32.88464286 18.26672959 28.05915034 18.30059295 23.23237705 18.34700966 C19.51851959 18.37648948 15.80503154 18.37822737 12.0910778 18.3719902 C10.31167498 18.37301638 8.53225141 18.38348765 6.75296211 18.40361404 C4.26276397 18.42832526 1.77555158 18.41478197 -0.71459961 18.39160156 C-1.44774887 18.40688904 -2.18089813 18.42217651 -2.93626404 18.43792725 C-5.75866105 18.37992537 -7.99375173 18.18225826 -10.23109627 16.36918259 C-12.42678148 13.85306059 -13.60868242 11.85016433 -14.34179688 8.58447266 C-13.53921489 5.15525873 -12.16403144 3.85140337 -9.43699646 1.69987869 C-6.43477681 -0.07330576 -3.38112925 -0.04966689 0 0 Z "
    fill="#1581C9" transform="translate(110.654296875,589.35302734375)" />
  <path
    d="M0 0 C3.0891961 3.08602227 6.1725404 6.17766844 9.24987793 9.27552795 C11.42593875 11.465097 13.60477741 13.65189372 15.78369141 15.83862305 C16.92879266 16.98877382 18.07299768 18.13981757 19.21630859 19.29174805 C20.88140397 20.96902705 22.54975676 22.64300689 24.21875 24.31640625 C24.72410278 24.82692032 25.22945557 25.33743439 25.75012207 25.86341858 C28.68675908 28.80051386 31.75325325 31.41669776 35 34 C36.37368345 35.63356951 37.71937515 37.2925002 39 39 C38.505 39.99 38.505 39.99 38 41 C32.57776687 35.65364281 27.16718068 30.29570726 21.76464844 24.92944336 C19.92423294 23.10414255 18.08113781 21.28153953 16.23535156 19.46166992 C13.58735459 16.84993714 10.94905034 14.22875008 8.3125 11.60546875 C7.48129639 10.78974899 6.65009277 9.97402924 5.79370117 9.1335907 C5.0329126 8.37302872 4.27212402 7.61246674 3.48828125 6.82885742 C2.81321533 6.16045334 2.13814941 5.49204926 1.44262695 4.8033905 C0 3 0 3 0 0 Z "
    fill="#6B29C9" transform="translate(405,429)" />
  <path
    d="M0 0 C5.94 0 11.88 0 18 0 C18 0.99 18 1.98 18 3 C11.71739294 3.23268915 6.11980533 2.40454548 0 1 C0 0.67 0 0.34 0 0 Z "
    fill="#1E88CE" transform="translate(645,227)" />
  <path
    d="M0 0 C10.55808656 0.41002278 10.55808656 0.41002278 15 5 C9.33895411 4.50341703 5.12325529 3.45489316 0 1 C0 0.67 0 0.34 0 0 Z "
    fill="#8331CA" transform="translate(510,419)" />
  <path
    d="M0 0 C2.96404505 2.80804268 5.44499019 5.18315774 7 9 C7.66 9 8.32 9 9 9 C9 9.66 9 10.32 9 11 C4.55092795 9.51697598 2.25420608 5.91714499 0 2 C0 1.34 0 0.68 0 0 Z "
    fill="#8331C9" transform="translate(469,465)" />
  <path
    d="M0 0 C5.29158974 1.40071493 7.77478044 4.85487245 11 9 C8.07153324 7.57268007 5.48582937 6.13071088 3 4 C3 3.34 3 2.68 3 2 C2.01 1.67 1.02 1.34 0 1 C0 0.67 0 0.34 0 0 Z "
    fill="#1E7AC8" transform="translate(255,540)" />
  <path
    d="M0 0 C0 4.38968456 -2.12805101 5.76905739 -5 9 C-5.66 8.67 -6.32 8.34 -7 8 C-4.69 5.36 -2.38 2.72 0 0 Z "
    fill="#098CC7" transform="translate(478,424)" />
</svg>